<?xml version="1.0" standalone="no"?>
<!DOCTYPE svg PUBLIC "-//W3C//DTD SVG 20010904//EN"
 "http://www.w3.org/TR/2001/REC-SVG-20010904/DTD/svg10.dtd">
<svg version="1.0" xmlns="http://www.w3.org/2000/svg"
 width="128.000000pt" height="128.000000pt" viewBox="0 0 128.000000 128.000000"
 preserveAspectRatio="xMidYMid meet">
<metadata>
Created by potrace 1.11, written by Peter Selinger 2001-2013
</metadata>
<g transform="translate(0.000000,128.000000) scale(0.100000,-0.100000)"
fill="#000000" stroke="none">
<path d="M0 640 l0 -640 640 0 640 0 0 640 0 640 -640 0 -640 0 0 -640z m451
299 c86 -47 105 -156 40 -223 l-32 -33 36 -22 c99 -58 98 -229 -3 -295 -52
-35 -109 -45 -239 -46 l-113 0 0 319 0 320 43 4 c23 3 83 4 133 2 75 -2 99 -6
135 -26z m341 -129 l3 -151 105 148 106 148 67 3 67 3 -100 -138 c-55 -76 -98
-143 -96 -150 3 -6 55 -86 115 -177 61 -91 111 -168 111 -171 0 -3 -29 -5 -65
-5 l-64 0 -89 136 -89 136 -37 -47 c-35 -47 -36 -50 -36 -136 l0 -89 -55 0
-55 0 0 320 0 320 55 0 54 0 3 -150z"/>
<path d="M250 795 l0 -75 50 0 c60 0 94 15 109 47 16 36 14 51 -14 78 -20 21
-34 25 -85 25 l-60 0 0 -75z"/>
<path d="M250 520 l0 -110 55 0 c103 0 145 33 145 116 0 72 -43 104 -140 104
l-60 0 0 -110z"/>
</g>
</svg>
